<?xml version="1.0" standalone="no"?>
<!DOCTYPE svg PUBLIC "-//W3C//DTD SVG 20010904//EN"
 "http://www.w3.org/TR/2001/REC-SVG-20010904/DTD/svg10.dtd">
<svg version="1.0" xmlns="http://www.w3.org/2000/svg"
 width="1066.000000pt" height="662.000000pt" viewBox="0 0 1066.000000 662.000000"
 preserveAspectRatio="xMidYMid meet">

<g transform="translate(0.000000,662.000000) scale(0.100000,-0.100000)"
fill="#000000" stroke="none">
<path d="M5045 6504 c-438 -35 -832 -145 -1225 -340 -308 -154 -556 -331 -803
-573 -314 -307 -530 -623 -700 -1023 -39 -91 -137 -377 -137 -401 0 -4 59 -6
131 -5 l131 3 37 110 c213 621 603 1126 1156 1494 645 429 1453 585 2230 430
1135 -226 2044 -1103 2285 -2204 49 -223 64 -358 64 -605 0 -236 -9 -341 -50
-550 -215 -1113 -1092 -2006 -2224 -2265 -471 -108 -987 -95 -1461 35 -1060
292 -1873 1148 -2089 2199 -16 81 -30 162 -30 179 l0 32 -130 0 -130 0 6 -47
c14 -108 65 -346 99 -458 157 -516 395 -921 769 -1304 517 -528 1162 -844
1926 -942 157 -21 620 -18 780 5 394 55 705 151 1050 322 308 154 556 331 803
573 387 379 644 798 801 1304 94 303 131 556 131 902 0 335 -35 590 -120 870
-157 516 -395 921 -769 1304 -508 519 -1138 833 -1884 937 -103 14 -540 26
-647 18z"/>
<path d="M5399 4110 c-198 -24 -369 -190 -330 -322 15 -47 44 -68 96 -68 51 0
66 14 114 104 47 91 73 109 159 114 57 3 72 0 101 -20 58 -39 76 -72 76 -137
0 -108 -65 -163 -203 -175 -41 -3 -86 -13 -102 -21 -53 -27 -60 -108 -12 -145
21 -17 40 -20 126 -20 143 -1 195 -26 232 -115 20 -49 21 -140 1 -185 -33 -77
-114 -130 -197 -130 -99 0 -152 43 -216 177 -20 43 -44 83 -53 90 -24 19 -82
15 -118 -7 -105 -63 -17 -284 151 -379 142 -81 334 -82 480 -3 195 106 273
355 164 524 -28 45 -108 119 -140 131 -8 3 4 22 33 53 73 76 93 124 93 219 0
64 -5 91 -24 130 -50 102 -146 165 -283 184 -43 6 -79 10 -80 10 -1 -1 -32 -5
-68 -9z"/>
<path d="M6471 4110 c-238 -51 -373 -263 -388 -610 -18 -424 133 -667 429
-687 153 -11 277 35 373 138 80 87 99 145 100 294 0 108 -3 126 -26 179 -67
152 -194 236 -355 236 -93 0 -166 -26 -230 -83 l-47 -41 7 77 c18 203 106 329
230 329 73 0 118 -33 170 -123 14 -25 36 -51 48 -57 77 -40 158 2 158 82 0 97
-88 201 -207 246 -65 24 -194 34 -262 20z m187 -653 c62 -40 95 -116 95 -217
0 -146 -69 -240 -183 -248 -47 -3 -66 0 -99 19 -73 41 -120 131 -121 233 0 76
15 126 53 172 64 77 174 95 255 41z"/>
<path d="M7450 4104 c-104 -28 -201 -110 -246 -208 -98 -215 -98 -651 0 -847
81 -160 236 -249 411 -236 183 14 327 143 381 342 38 138 37 458 -2 608 -37
143 -127 267 -229 313 -97 45 -214 55 -315 28z m212 -190 c39 -20 74 -77 95
-154 23 -85 26 -483 4 -570 -18 -73 -56 -146 -85 -165 -109 -72 -221 -21 -267
122 -18 58 -23 98 -27 267 -8 339 29 470 145 512 41 15 91 11 135 -12z"/>
<path d="M2217 4076 c-50 -18 -74 -41 -102 -96 -12 -25 -104 -248 -204 -497
-127 -316 -182 -464 -183 -493 -1 -95 106 -160 192 -115 31 16 68 86 111 208
l24 67 229 -2 230 -3 31 -80 c63 -159 88 -193 152 -202 87 -12 158 52 150 137
-4 46 -355 915 -403 997 -13 23 -39 51 -58 63 -45 27 -120 34 -169 16z m143
-516 l69 -185 -141 -3 c-77 -1 -143 -1 -145 1 -2 2 23 78 56 168 75 209 83
226 87 214 3 -5 36 -93 74 -195z"/>
<path d="M2954 3519 c-17 -19 -19 -41 -22 -196 -5 -286 20 -368 127 -420 41
-20 74 -28 136 -31 107 -6 178 14 229 64 65 64 70 83 74 329 4 213 3 221 -18
248 -28 35 -87 38 -116 6 -17 -19 -19 -43 -24 -246 l-5 -225 -27 -23 c-54 -46
-161 -40 -196 12 -14 23 -18 60 -22 244 -4 195 -7 219 -24 238 -26 29 -86 29
-112 0z"/>
<path d="M4294 3519 c-18 -19 -19 -42 -22 -294 -3 -302 2 -338 52 -351 44 -11
76 4 92 42 12 29 14 85 12 309 -3 252 -4 275 -22 294 -13 14 -31 21 -56 21
-25 0 -43 -7 -56 -21z"/>
<path d="M3631 3504 c-20 -26 -21 -36 -21 -301 l0 -274 26 -25 25 -26 162 4
c157 3 164 4 215 32 97 54 142 145 142 291 0 143 -48 243 -140 295 -42 23 -55
25 -216 28 l-171 4 -22 -28z m315 -113 c59 -27 79 -73 79 -181 0 -65 -5 -94
-20 -124 -32 -64 -59 -77 -156 -79 l-84 -2 -3 203 -2 202 72 0 c49 0 86 -6
114 -19z"/>
<path d="M4505 3516 c-11 -8 -18 -26 -18 -46 0 -49 23 -60 119 -60 l83 0 3
-251 c3 -250 3 -251 27 -270 28 -22 69 -25 97 -5 18 13 19 32 24 268 l5 253
85 3 c94 3 120 17 120 63 0 57 -8 59 -279 59 -192 0 -251 -3 -266 -14z"/>
</g>
</svg>
